<mxfile host="app.diagrams.net" agent="Mozilla/5.0 (Windows NT 10.0; Win64; x64) AppleWebKit/537.36 (KHTML, like Gecko) Chrome/141.0.0.0 Safari/537.36" version="28.2.8">
  <diagram name="第 1 页" id="oqTbtiz89L21sVVY1Ckn">
    <mxGraphModel dx="4300" dy="3059" grid="1" gridSize="10" guides="1" tooltips="1" connect="1" arrows="1" fold="1" page="1" pageScale="1" pageWidth="827" pageHeight="1169" math="0" shadow="0">
      <root>
        <mxCell id="0" />
        <mxCell id="1" parent="0" />
        <mxCell id="7LnSrPK5jslSfy1wZtUa-116" value="" style="rounded=0;whiteSpace=wrap;html=1;fillColor=#f8cecc;strokeColor=#b85450;" parent="1" vertex="1">
          <mxGeometry x="1475" y="747.5" width="630" height="235" as="geometry" />
        </mxCell>
        <mxCell id="7LnSrPK5jslSfy1wZtUa-6" value="" style="rounded=0;whiteSpace=wrap;html=1;fillColor=#dae8fc;strokeColor=#6c8ebf;" parent="1" vertex="1">
          <mxGeometry x="290" y="210" width="200" height="460" as="geometry" />
        </mxCell>
        <mxCell id="7LnSrPK5jslSfy1wZtUa-1" value="&lt;font style=&quot;font-size: 24px;&quot;&gt;Input&lt;br&gt;SRAM&lt;br&gt;&amp;nbsp;512x64b&lt;/font&gt;" style="rounded=0;whiteSpace=wrap;html=1;fillColor=#dae8fc;strokeColor=#6c8ebf;" parent="1" vertex="1">
          <mxGeometry x="10" y="205" width="120" height="230" as="geometry" />
        </mxCell>
        <mxCell id="7LnSrPK5jslSfy1wZtUa-2" value="&lt;font style=&quot;font-size: 24px;&quot;&gt;Input&lt;br&gt;SRAM&lt;br&gt;&amp;nbsp;512x64b&lt;/font&gt;" style="rounded=0;whiteSpace=wrap;html=1;fillColor=#dae8fc;strokeColor=#6c8ebf;" parent="1" vertex="1">
          <mxGeometry x="10" y="455" width="120" height="230" as="geometry" />
        </mxCell>
        <mxCell id="7LnSrPK5jslSfy1wZtUa-3" value="" style="rounded=0;whiteSpace=wrap;html=1;fillColor=#dae8fc;strokeColor=#6c8ebf;" parent="1" vertex="1">
          <mxGeometry x="630" y="200" width="490" height="500" as="geometry" />
        </mxCell>
        <mxCell id="7LnSrPK5jslSfy1wZtUa-5" value="&lt;font style=&quot;font-size: 24px;&quot;&gt;FIFO 16x8b&lt;/font&gt;" style="rounded=0;whiteSpace=wrap;html=1;" parent="1" vertex="1">
          <mxGeometry x="310" y="290" width="160" height="60" as="geometry" />
        </mxCell>
        <mxCell id="7LnSrPK5jslSfy1wZtUa-7" value="&lt;font style=&quot;font-size: 24px;&quot;&gt;Queue&lt;/font&gt;" style="text;html=1;whiteSpace=wrap;strokeColor=none;fillColor=none;align=center;verticalAlign=middle;rounded=0;" parent="1" vertex="1">
          <mxGeometry x="300" y="220" width="60" height="30" as="geometry" />
        </mxCell>
        <mxCell id="7LnSrPK5jslSfy1wZtUa-8" value="&lt;span style=&quot;font-size: 24px;&quot;&gt;FIFO 16x8b&lt;/span&gt;" style="rounded=0;whiteSpace=wrap;html=1;" parent="1" vertex="1">
          <mxGeometry x="310" y="580" width="160" height="60" as="geometry" />
        </mxCell>
        <mxCell id="7LnSrPK5jslSfy1wZtUa-9" value="" style="endArrow=none;dashed=1;html=1;dashPattern=1 3;strokeWidth=2;rounded=0;entryX=0.5;entryY=1;entryDx=0;entryDy=0;exitX=0.5;exitY=0;exitDx=0;exitDy=0;" parent="1" source="7LnSrPK5jslSfy1wZtUa-8" target="7LnSrPK5jslSfy1wZtUa-5" edge="1">
          <mxGeometry width="50" height="50" relative="1" as="geometry">
            <mxPoint x="350" y="420" as="sourcePoint" />
            <mxPoint x="400" y="370" as="targetPoint" />
          </mxGeometry>
        </mxCell>
        <mxCell id="7LnSrPK5jslSfy1wZtUa-10" value="" style="shape=flexArrow;endArrow=classic;html=1;rounded=0;width=74;endSize=12.29;endWidth=104.58536585365853;" parent="1" edge="1">
          <mxGeometry width="50" height="50" relative="1" as="geometry">
            <mxPoint x="150" y="330" as="sourcePoint" />
            <mxPoint x="270" y="330" as="targetPoint" />
          </mxGeometry>
        </mxCell>
        <mxCell id="7LnSrPK5jslSfy1wZtUa-34" value="&lt;font style=&quot;font-size: 24px;&quot;&gt;64bit&lt;/font&gt;" style="edgeLabel;html=1;align=center;verticalAlign=middle;resizable=0;points=[];" parent="7LnSrPK5jslSfy1wZtUa-10" vertex="1" connectable="0">
          <mxGeometry x="0.0523" y="2" relative="1" as="geometry">
            <mxPoint as="offset" />
          </mxGeometry>
        </mxCell>
        <mxCell id="7LnSrPK5jslSfy1wZtUa-12" value="" style="shape=flexArrow;endArrow=classic;html=1;rounded=0;width=74;endSize=12.29;endWidth=104.58536585365853;" parent="1" edge="1">
          <mxGeometry width="50" height="50" relative="1" as="geometry">
            <mxPoint x="150" y="560" as="sourcePoint" />
            <mxPoint x="270" y="560" as="targetPoint" />
          </mxGeometry>
        </mxCell>
        <mxCell id="7LnSrPK5jslSfy1wZtUa-39" value="&lt;font style=&quot;font-size: 24px;&quot;&gt;64b&lt;/font&gt;" style="edgeLabel;html=1;align=center;verticalAlign=middle;resizable=0;points=[];" parent="7LnSrPK5jslSfy1wZtUa-12" vertex="1" connectable="0">
          <mxGeometry x="-0.0406" y="-1" relative="1" as="geometry">
            <mxPoint as="offset" />
          </mxGeometry>
        </mxCell>
        <mxCell id="7LnSrPK5jslSfy1wZtUa-13" value="&lt;font style=&quot;font-size: 24px;&quot;&gt;16x16 PE Array&lt;/font&gt;" style="text;html=1;whiteSpace=wrap;strokeColor=none;fillColor=none;align=center;verticalAlign=middle;rounded=0;" parent="1" vertex="1">
          <mxGeometry x="647" y="660" width="180" height="30" as="geometry" />
        </mxCell>
        <mxCell id="7LnSrPK5jslSfy1wZtUa-14" value="&lt;font style=&quot;font-size: 24px;&quot;&gt;PE&lt;/font&gt;" style="whiteSpace=wrap;html=1;aspect=fixed;" parent="1" vertex="1">
          <mxGeometry x="670" y="280" width="80" height="80" as="geometry" />
        </mxCell>
        <mxCell id="7LnSrPK5jslSfy1wZtUa-16" value="" style="endArrow=classic;html=1;rounded=0;exitX=1;exitY=0.5;exitDx=0;exitDy=0;entryX=0;entryY=0.5;entryDx=0;entryDy=0;" parent="1" source="7LnSrPK5jslSfy1wZtUa-5" target="7LnSrPK5jslSfy1wZtUa-14" edge="1">
          <mxGeometry width="50" height="50" relative="1" as="geometry">
            <mxPoint x="540" y="360" as="sourcePoint" />
            <mxPoint x="590" y="310" as="targetPoint" />
          </mxGeometry>
        </mxCell>
        <mxCell id="7LnSrPK5jslSfy1wZtUa-17" value="&lt;font style=&quot;font-size: 24px;&quot;&gt;PE&lt;/font&gt;" style="whiteSpace=wrap;html=1;aspect=fixed;" parent="1" vertex="1">
          <mxGeometry x="670" y="570" width="80" height="80" as="geometry" />
        </mxCell>
        <mxCell id="7LnSrPK5jslSfy1wZtUa-18" value="" style="endArrow=classic;html=1;rounded=0;exitX=1;exitY=0.5;exitDx=0;exitDy=0;entryX=0;entryY=0.5;entryDx=0;entryDy=0;" parent="1" target="7LnSrPK5jslSfy1wZtUa-17" edge="1">
          <mxGeometry width="50" height="50" relative="1" as="geometry">
            <mxPoint x="470" y="610" as="sourcePoint" />
            <mxPoint x="590" y="600" as="targetPoint" />
          </mxGeometry>
        </mxCell>
        <mxCell id="7LnSrPK5jslSfy1wZtUa-19" value="&lt;font style=&quot;font-size: 24px;&quot;&gt;PE&lt;/font&gt;" style="whiteSpace=wrap;html=1;aspect=fixed;" parent="1" vertex="1">
          <mxGeometry x="980" y="280" width="80" height="80" as="geometry" />
        </mxCell>
        <mxCell id="7LnSrPK5jslSfy1wZtUa-20" value="&lt;font style=&quot;font-size: 24px;&quot;&gt;PE&lt;/font&gt;" style="whiteSpace=wrap;html=1;aspect=fixed;" parent="1" vertex="1">
          <mxGeometry x="980" y="570" width="80" height="80" as="geometry" />
        </mxCell>
        <mxCell id="7LnSrPK5jslSfy1wZtUa-21" value="" style="endArrow=none;dashed=1;html=1;dashPattern=1 3;strokeWidth=2;rounded=0;entryX=1;entryY=0.5;entryDx=0;entryDy=0;exitX=0;exitY=0.5;exitDx=0;exitDy=0;" parent="1" source="7LnSrPK5jslSfy1wZtUa-19" target="7LnSrPK5jslSfy1wZtUa-14" edge="1">
          <mxGeometry width="50" height="50" relative="1" as="geometry">
            <mxPoint x="520" y="490" as="sourcePoint" />
            <mxPoint x="570" y="440" as="targetPoint" />
          </mxGeometry>
        </mxCell>
        <mxCell id="7LnSrPK5jslSfy1wZtUa-22" value="" style="endArrow=none;dashed=1;html=1;dashPattern=1 3;strokeWidth=2;rounded=0;entryX=1;entryY=0.5;entryDx=0;entryDy=0;exitX=0;exitY=0.5;exitDx=0;exitDy=0;" parent="1" source="7LnSrPK5jslSfy1wZtUa-20" edge="1">
          <mxGeometry width="50" height="50" relative="1" as="geometry">
            <mxPoint x="920" y="609.4100000000001" as="sourcePoint" />
            <mxPoint x="760" y="609.4100000000001" as="targetPoint" />
          </mxGeometry>
        </mxCell>
        <mxCell id="7LnSrPK5jslSfy1wZtUa-23" value="" style="endArrow=none;dashed=1;html=1;dashPattern=1 3;strokeWidth=2;rounded=0;entryX=0.5;entryY=1;entryDx=0;entryDy=0;exitX=0.5;exitY=0;exitDx=0;exitDy=0;" parent="1" source="7LnSrPK5jslSfy1wZtUa-17" target="7LnSrPK5jslSfy1wZtUa-14" edge="1">
          <mxGeometry width="50" height="50" relative="1" as="geometry">
            <mxPoint x="610" y="520" as="sourcePoint" />
            <mxPoint x="660" y="470" as="targetPoint" />
          </mxGeometry>
        </mxCell>
        <mxCell id="7LnSrPK5jslSfy1wZtUa-24" value="" style="endArrow=none;dashed=1;html=1;dashPattern=1 3;strokeWidth=2;rounded=0;entryX=0.5;entryY=1;entryDx=0;entryDy=0;exitX=0.5;exitY=0;exitDx=0;exitDy=0;" parent="1" source="7LnSrPK5jslSfy1wZtUa-20" edge="1">
          <mxGeometry width="50" height="50" relative="1" as="geometry">
            <mxPoint x="1020" y="560" as="sourcePoint" />
            <mxPoint x="1019.47" y="370" as="targetPoint" />
          </mxGeometry>
        </mxCell>
        <mxCell id="7LnSrPK5jslSfy1wZtUa-25" value="&lt;font style=&quot;font-size: 24px;&quot;&gt;Weight Register File&lt;/font&gt;&lt;div&gt;&lt;div&gt;&lt;font style=&quot;font-size: 24px;&quot;&gt;64x128b&lt;/font&gt;&lt;/div&gt;&lt;/div&gt;" style="rounded=0;whiteSpace=wrap;html=1;fillColor=#dae8fc;strokeColor=#6c8ebf;" parent="1" vertex="1">
          <mxGeometry x="645" y="-380" width="430" height="100" as="geometry" />
        </mxCell>
        <mxCell id="7LnSrPK5jslSfy1wZtUa-27" value="" style="rounded=0;whiteSpace=wrap;html=1;fillColor=#dae8fc;strokeColor=#6c8ebf;direction=south;" parent="1" vertex="1">
          <mxGeometry x="630" y="-120" width="460" height="240" as="geometry" />
        </mxCell>
        <mxCell id="7LnSrPK5jslSfy1wZtUa-28" value="&lt;span style=&quot;font-size: 24px;&quot;&gt;FIFO 16x8b&lt;/span&gt;" style="rounded=0;whiteSpace=wrap;html=1;direction=south;horizontal=0;" parent="1" vertex="1">
          <mxGeometry x="990" y="-70" width="60" height="180" as="geometry" />
        </mxCell>
        <mxCell id="7LnSrPK5jslSfy1wZtUa-29" value="&lt;font style=&quot;font-size: 24px;&quot;&gt;Queue&lt;/font&gt;" style="text;html=1;whiteSpace=wrap;strokeColor=none;fillColor=none;align=center;verticalAlign=middle;rounded=0;" parent="1" vertex="1">
          <mxGeometry x="645" y="-110" width="60" height="30" as="geometry" />
        </mxCell>
        <mxCell id="7LnSrPK5jslSfy1wZtUa-30" value="&lt;span style=&quot;font-size: 24px;&quot;&gt;FIFO 16x8b&lt;/span&gt;" style="rounded=0;whiteSpace=wrap;html=1;direction=south;horizontal=0;" parent="1" vertex="1">
          <mxGeometry x="680" y="-70" width="60" height="180" as="geometry" />
        </mxCell>
        <mxCell id="7LnSrPK5jslSfy1wZtUa-31" value="" style="endArrow=none;dashed=1;html=1;dashPattern=1 3;strokeWidth=2;rounded=0;entryX=0.5;entryY=1;entryDx=0;entryDy=0;exitX=0.5;exitY=0;exitDx=0;exitDy=0;" parent="1" source="7LnSrPK5jslSfy1wZtUa-30" target="7LnSrPK5jslSfy1wZtUa-28" edge="1">
          <mxGeometry width="50" height="50" relative="1" as="geometry">
            <mxPoint x="820" as="sourcePoint" />
            <mxPoint x="870" y="-50" as="targetPoint" />
          </mxGeometry>
        </mxCell>
        <mxCell id="7LnSrPK5jslSfy1wZtUa-32" value="" style="shape=flexArrow;endArrow=classic;html=1;rounded=0;width=74;endSize=12.29;endWidth=104.58536585365853;" parent="1" edge="1">
          <mxGeometry width="50" height="50" relative="1" as="geometry">
            <mxPoint x="850" y="-270" as="sourcePoint" />
            <mxPoint x="850" y="-180" as="targetPoint" />
          </mxGeometry>
        </mxCell>
        <mxCell id="7LnSrPK5jslSfy1wZtUa-51" value="&lt;font style=&quot;font-size: 24px;&quot;&gt;128b&lt;/font&gt;" style="edgeLabel;html=1;align=center;verticalAlign=middle;resizable=0;points=[];" parent="7LnSrPK5jslSfy1wZtUa-32" vertex="1" connectable="0">
          <mxGeometry x="0.1639" y="-3" relative="1" as="geometry">
            <mxPoint as="offset" />
          </mxGeometry>
        </mxCell>
        <mxCell id="7LnSrPK5jslSfy1wZtUa-41" value="" style="endArrow=classic;html=1;rounded=0;exitX=1;exitY=0.5;exitDx=0;exitDy=0;" parent="1" source="7LnSrPK5jslSfy1wZtUa-30" target="7LnSrPK5jslSfy1wZtUa-14" edge="1">
          <mxGeometry width="50" height="50" relative="1" as="geometry">
            <mxPoint x="570" y="160" as="sourcePoint" />
            <mxPoint x="770" y="160" as="targetPoint" />
          </mxGeometry>
        </mxCell>
        <mxCell id="7LnSrPK5jslSfy1wZtUa-42" value="" style="endArrow=classic;html=1;rounded=0;exitX=1;exitY=0.5;exitDx=0;exitDy=0;" parent="1" edge="1">
          <mxGeometry width="50" height="50" relative="1" as="geometry">
            <mxPoint x="1019.47" y="110" as="sourcePoint" />
            <mxPoint x="1019.47" y="280" as="targetPoint" />
          </mxGeometry>
        </mxCell>
        <mxCell id="7LnSrPK5jslSfy1wZtUa-43" value="&lt;font style=&quot;font-size: 36px;&quot;&gt;System Control&lt;/font&gt;" style="rounded=0;whiteSpace=wrap;html=1;fillColor=#f8cecc;strokeColor=#b85450;" parent="1" vertex="1">
          <mxGeometry x="50" y="-200" width="500" height="320" as="geometry" />
        </mxCell>
        <mxCell id="7LnSrPK5jslSfy1wZtUa-48" value="" style="rounded=0;whiteSpace=wrap;html=1;fillColor=#f8cecc;strokeColor=#b85450;" parent="1" vertex="1">
          <mxGeometry x="1400" y="-20" width="1470" height="710" as="geometry" />
        </mxCell>
        <mxCell id="7LnSrPK5jslSfy1wZtUa-49" value="&lt;font style=&quot;font-size: 24px;&quot;&gt;Non Linear&lt;/font&gt;" style="text;html=1;whiteSpace=wrap;strokeColor=none;fillColor=none;align=center;verticalAlign=middle;rounded=0;" parent="1" vertex="1">
          <mxGeometry x="1410" y="5" width="136" height="30" as="geometry" />
        </mxCell>
        <mxCell id="7LnSrPK5jslSfy1wZtUa-50" value="" style="shape=flexArrow;endArrow=classic;html=1;rounded=0;endWidth=208.42975206611573;endSize=28.94545454545454;width=260;" parent="1" edge="1">
          <mxGeometry width="50" height="50" relative="1" as="geometry">
            <mxPoint x="1150" y="425" as="sourcePoint" />
            <mxPoint x="1380" y="425" as="targetPoint" />
          </mxGeometry>
        </mxCell>
        <mxCell id="7LnSrPK5jslSfy1wZtUa-54" value="&lt;font style=&quot;font-size: 24px;&quot;&gt;336b&lt;/font&gt;" style="edgeLabel;html=1;align=center;verticalAlign=middle;resizable=0;points=[];" parent="7LnSrPK5jslSfy1wZtUa-50" vertex="1" connectable="0">
          <mxGeometry x="-0.0862" y="5" relative="1" as="geometry">
            <mxPoint as="offset" />
          </mxGeometry>
        </mxCell>
        <mxCell id="7LnSrPK5jslSfy1wZtUa-83" style="edgeStyle=orthogonalEdgeStyle;rounded=0;orthogonalLoop=1;jettySize=auto;html=1;exitX=1;exitY=0.5;exitDx=0;exitDy=0;entryX=0;entryY=0.5;entryDx=0;entryDy=0;" parent="1" source="7LnSrPK5jslSfy1wZtUa-58" target="7LnSrPK5jslSfy1wZtUa-79" edge="1">
          <mxGeometry relative="1" as="geometry" />
        </mxCell>
        <mxCell id="7LnSrPK5jslSfy1wZtUa-58" value="&lt;font style=&quot;font-size: 24px;&quot;&gt;SiLu&lt;/font&gt;" style="rounded=0;whiteSpace=wrap;html=1;fillColor=#dae8fc;strokeColor=#6c8ebf;" parent="1" vertex="1">
          <mxGeometry x="1960" y="100" width="210" height="140" as="geometry" />
        </mxCell>
        <mxCell id="7LnSrPK5jslSfy1wZtUa-46" value="&lt;font style=&quot;font-size: 24px;&quot;&gt;Quantize&lt;/font&gt;" style="text;html=1;whiteSpace=wrap;strokeColor=none;fillColor=none;align=center;verticalAlign=middle;rounded=0;container=0;" parent="1" vertex="1">
          <mxGeometry x="1510" y="770" width="60" height="30" as="geometry" />
        </mxCell>
        <mxCell id="7LnSrPK5jslSfy1wZtUa-67" value="" style="shape=table;startSize=0;container=1;collapsible=0;childLayout=tableLayout;" parent="1" vertex="1">
          <mxGeometry x="1710" y="100" width="180" height="140" as="geometry" />
        </mxCell>
        <mxCell id="7LnSrPK5jslSfy1wZtUa-68" value="" style="shape=tableRow;horizontal=0;startSize=0;swimlaneHead=0;swimlaneBody=0;strokeColor=inherit;top=0;left=0;bottom=0;right=0;collapsible=0;dropTarget=0;fillColor=none;points=[[0,0.5],[1,0.5]];portConstraint=eastwest;" parent="7LnSrPK5jslSfy1wZtUa-67" vertex="1">
          <mxGeometry width="180" height="140" as="geometry" />
        </mxCell>
        <mxCell id="7LnSrPK5jslSfy1wZtUa-69" value="&lt;font style=&quot;font-size: 24px;&quot;&gt;DFF&lt;/font&gt;" style="shape=partialRectangle;html=1;whiteSpace=wrap;connectable=0;strokeColor=inherit;overflow=hidden;fillColor=none;top=0;left=0;bottom=0;right=0;pointerEvents=1;" parent="7LnSrPK5jslSfy1wZtUa-68" vertex="1">
          <mxGeometry width="60" height="140" as="geometry">
            <mxRectangle width="60" height="140" as="alternateBounds" />
          </mxGeometry>
        </mxCell>
        <mxCell id="7LnSrPK5jslSfy1wZtUa-70" value="&lt;span style=&quot;font-size: 24px;&quot;&gt;DFF&lt;/span&gt;" style="shape=partialRectangle;html=1;whiteSpace=wrap;connectable=0;strokeColor=inherit;overflow=hidden;fillColor=none;top=0;left=0;bottom=0;right=0;pointerEvents=1;" parent="7LnSrPK5jslSfy1wZtUa-68" vertex="1">
          <mxGeometry x="60" width="60" height="140" as="geometry">
            <mxRectangle width="60" height="140" as="alternateBounds" />
          </mxGeometry>
        </mxCell>
        <mxCell id="7LnSrPK5jslSfy1wZtUa-71" value="&lt;span style=&quot;font-size: 24px;&quot;&gt;DFF&lt;/span&gt;" style="shape=partialRectangle;html=1;whiteSpace=wrap;connectable=0;strokeColor=inherit;overflow=hidden;fillColor=none;top=0;left=0;bottom=0;right=0;pointerEvents=1;" parent="7LnSrPK5jslSfy1wZtUa-68" vertex="1">
          <mxGeometry x="120" width="60" height="140" as="geometry">
            <mxRectangle width="60" height="140" as="alternateBounds" />
          </mxGeometry>
        </mxCell>
        <mxCell id="7LnSrPK5jslSfy1wZtUa-77" style="edgeStyle=orthogonalEdgeStyle;rounded=0;orthogonalLoop=1;jettySize=auto;html=1;exitX=1;exitY=0.5;exitDx=0;exitDy=0;entryX=0;entryY=0.5;entryDx=0;entryDy=0;" parent="1" source="7LnSrPK5jslSfy1wZtUa-68" target="7LnSrPK5jslSfy1wZtUa-58" edge="1">
          <mxGeometry relative="1" as="geometry" />
        </mxCell>
        <mxCell id="7LnSrPK5jslSfy1wZtUa-78" value="" style="shape=table;startSize=0;container=1;collapsible=0;childLayout=tableLayout;" parent="1" vertex="1">
          <mxGeometry x="2230" y="100" width="180" height="140" as="geometry" />
        </mxCell>
        <mxCell id="7LnSrPK5jslSfy1wZtUa-79" value="" style="shape=tableRow;horizontal=0;startSize=0;swimlaneHead=0;swimlaneBody=0;strokeColor=inherit;top=0;left=0;bottom=0;right=0;collapsible=0;dropTarget=0;fillColor=none;points=[[0,0.5],[1,0.5]];portConstraint=eastwest;" parent="7LnSrPK5jslSfy1wZtUa-78" vertex="1">
          <mxGeometry width="180" height="140" as="geometry" />
        </mxCell>
        <mxCell id="7LnSrPK5jslSfy1wZtUa-80" value="&lt;font style=&quot;font-size: 24px;&quot;&gt;DFF&lt;/font&gt;" style="shape=partialRectangle;html=1;whiteSpace=wrap;connectable=0;strokeColor=inherit;overflow=hidden;fillColor=none;top=0;left=0;bottom=0;right=0;pointerEvents=1;" parent="7LnSrPK5jslSfy1wZtUa-79" vertex="1">
          <mxGeometry width="60" height="140" as="geometry">
            <mxRectangle width="60" height="140" as="alternateBounds" />
          </mxGeometry>
        </mxCell>
        <mxCell id="7LnSrPK5jslSfy1wZtUa-81" value="&lt;span style=&quot;font-size: 24px;&quot;&gt;DFF&lt;/span&gt;" style="shape=partialRectangle;html=1;whiteSpace=wrap;connectable=0;strokeColor=inherit;overflow=hidden;fillColor=none;top=0;left=0;bottom=0;right=0;pointerEvents=1;" parent="7LnSrPK5jslSfy1wZtUa-79" vertex="1">
          <mxGeometry x="60" width="60" height="140" as="geometry">
            <mxRectangle width="60" height="140" as="alternateBounds" />
          </mxGeometry>
        </mxCell>
        <mxCell id="7LnSrPK5jslSfy1wZtUa-82" value="&lt;span style=&quot;font-size: 24px;&quot;&gt;DFF&lt;/span&gt;" style="shape=partialRectangle;html=1;whiteSpace=wrap;connectable=0;strokeColor=inherit;overflow=hidden;fillColor=none;top=0;left=0;bottom=0;right=0;pointerEvents=1;" parent="7LnSrPK5jslSfy1wZtUa-79" vertex="1">
          <mxGeometry x="120" width="60" height="140" as="geometry">
            <mxRectangle width="60" height="140" as="alternateBounds" />
          </mxGeometry>
        </mxCell>
        <mxCell id="7LnSrPK5jslSfy1wZtUa-88" value="" style="rounded=0;whiteSpace=wrap;html=1;fillColor=#f8cecc;strokeColor=#b85450;" parent="1" vertex="1">
          <mxGeometry x="615" y="750" width="520" height="235" as="geometry" />
        </mxCell>
        <mxCell id="7LnSrPK5jslSfy1wZtUa-91" value="Write Out" style="text;whiteSpace=wrap;fontSize=24;" parent="1" vertex="1">
          <mxGeometry x="630" y="765" width="150" height="40" as="geometry" />
        </mxCell>
        <mxCell id="7LnSrPK5jslSfy1wZtUa-92" value="&lt;font style=&quot;font-size: 24px;&quot;&gt;Output&lt;br&gt;SRAM&lt;br&gt;&amp;nbsp;&lt;/font&gt;" style="rounded=0;whiteSpace=wrap;html=1;fillColor=#f8cecc;strokeColor=#b85450;" parent="1" vertex="1">
          <mxGeometry x="10" y="750" width="120" height="230" as="geometry" />
        </mxCell>
        <mxCell id="7LnSrPK5jslSfy1wZtUa-93" value="" style="shape=flexArrow;endArrow=classic;html=1;rounded=0;width=74;endSize=12.29;endWidth=104.58536585365853;" parent="1" edge="1">
          <mxGeometry width="50" height="50" relative="1" as="geometry">
            <mxPoint x="580" y="866.25" as="sourcePoint" />
            <mxPoint x="170" y="866.25" as="targetPoint" />
          </mxGeometry>
        </mxCell>
        <mxCell id="7LnSrPK5jslSfy1wZtUa-94" value="&lt;font style=&quot;font-size: 24px;&quot;&gt;64b&lt;/font&gt;" style="edgeLabel;html=1;align=center;verticalAlign=middle;resizable=0;points=[];" parent="7LnSrPK5jslSfy1wZtUa-93" vertex="1" connectable="0">
          <mxGeometry x="-0.0406" y="-1" relative="1" as="geometry">
            <mxPoint as="offset" />
          </mxGeometry>
        </mxCell>
        <mxCell id="7LnSrPK5jslSfy1wZtUa-105" value="" style="shape=flexArrow;endArrow=classic;html=1;rounded=0;endWidth=82.5;endSize=28.475;width=45;" parent="1" edge="1">
          <mxGeometry width="50" height="50" relative="1" as="geometry">
            <mxPoint x="1430" y="866.25" as="sourcePoint" />
            <mxPoint x="1200" y="866.25" as="targetPoint" />
          </mxGeometry>
        </mxCell>
        <mxCell id="7LnSrPK5jslSfy1wZtUa-112" style="edgeStyle=orthogonalEdgeStyle;rounded=0;orthogonalLoop=1;jettySize=auto;html=1;exitX=0;exitY=0.5;exitDx=0;exitDy=0;startArrow=classic;startFill=1;endArrow=none;endFill=0;entryX=1;entryY=0.24259259259259258;entryDx=0;entryDy=3;entryPerimeter=0;" parent="1" source="7LnSrPK5jslSfy1wZtUa-68" target="7LnSrPK5jslSfy1wZtUa-145" edge="1">
          <mxGeometry relative="1" as="geometry">
            <mxPoint x="1640" y="190" as="targetPoint" />
            <Array as="points">
              <mxPoint x="1700" y="170" />
              <mxPoint x="1630" y="170" />
              <mxPoint x="1630" y="199" />
            </Array>
          </mxGeometry>
        </mxCell>
        <mxCell id="7LnSrPK5jslSfy1wZtUa-114" value="&lt;font style=&quot;font-size: 72px;&quot;&gt;DRAM&lt;/font&gt;" style="rounded=0;whiteSpace=wrap;html=1;direction=west;horizontal=0;fillColor=#f8cecc;strokeColor=#b85450;" parent="1" vertex="1">
          <mxGeometry x="-460" y="-351.25" width="152.5" height="1342.5" as="geometry" />
        </mxCell>
        <mxCell id="7LnSrPK5jslSfy1wZtUa-120" value="" style="endArrow=none;html=1;rounded=0;startSize=30;strokeWidth=20;" parent="1" edge="1">
          <mxGeometry width="50" height="50" relative="1" as="geometry">
            <mxPoint x="-210" y="968.75" as="sourcePoint" />
            <mxPoint x="-200" y="-351.25" as="targetPoint" />
          </mxGeometry>
        </mxCell>
        <mxCell id="7LnSrPK5jslSfy1wZtUa-123" value="" style="shape=flexArrow;endArrow=classic;html=1;rounded=0;width=74;endSize=12.29;endWidth=104.58536585365853;" parent="1" edge="1">
          <mxGeometry width="50" height="50" relative="1" as="geometry">
            <mxPoint x="-130" y="-310" as="sourcePoint" />
            <mxPoint x="580" y="-310" as="targetPoint" />
          </mxGeometry>
        </mxCell>
        <mxCell id="7LnSrPK5jslSfy1wZtUa-124" value="&lt;font style=&quot;font-size: 24px;&quot;&gt;128b&lt;/font&gt;" style="edgeLabel;html=1;align=center;verticalAlign=middle;resizable=0;points=[];" parent="7LnSrPK5jslSfy1wZtUa-123" vertex="1" connectable="0">
          <mxGeometry x="0.1639" y="-3" relative="1" as="geometry">
            <mxPoint as="offset" />
          </mxGeometry>
        </mxCell>
        <mxCell id="7LnSrPK5jslSfy1wZtUa-125" value="" style="shape=flexArrow;endArrow=classic;html=1;rounded=0;width=74;endSize=12.29;endWidth=104.58536585365853;" parent="1" edge="1">
          <mxGeometry width="50" height="50" relative="1" as="geometry">
            <mxPoint x="-160" y="577.5" as="sourcePoint" />
            <mxPoint x="-40" y="577.5" as="targetPoint" />
          </mxGeometry>
        </mxCell>
        <mxCell id="7LnSrPK5jslSfy1wZtUa-126" value="&lt;font style=&quot;font-size: 24px;&quot;&gt;64b&lt;/font&gt;" style="edgeLabel;html=1;align=center;verticalAlign=middle;resizable=0;points=[];" parent="7LnSrPK5jslSfy1wZtUa-125" vertex="1" connectable="0">
          <mxGeometry x="-0.0406" y="-1" relative="1" as="geometry">
            <mxPoint as="offset" />
          </mxGeometry>
        </mxCell>
        <mxCell id="7LnSrPK5jslSfy1wZtUa-127" value="" style="shape=flexArrow;endArrow=classic;html=1;rounded=0;width=74;endSize=12.29;endWidth=104.58536585365853;" parent="1" edge="1">
          <mxGeometry width="50" height="50" relative="1" as="geometry">
            <mxPoint x="-150" y="330" as="sourcePoint" />
            <mxPoint x="-30" y="330" as="targetPoint" />
          </mxGeometry>
        </mxCell>
        <mxCell id="7LnSrPK5jslSfy1wZtUa-128" value="&lt;font style=&quot;font-size: 24px;&quot;&gt;64bit&lt;/font&gt;" style="edgeLabel;html=1;align=center;verticalAlign=middle;resizable=0;points=[];" parent="7LnSrPK5jslSfy1wZtUa-127" vertex="1" connectable="0">
          <mxGeometry x="0.0523" y="2" relative="1" as="geometry">
            <mxPoint as="offset" />
          </mxGeometry>
        </mxCell>
        <mxCell id="7LnSrPK5jslSfy1wZtUa-130" style="edgeStyle=orthogonalEdgeStyle;rounded=0;orthogonalLoop=1;jettySize=auto;html=1;exitX=1;exitY=0.5;exitDx=0;exitDy=0;entryX=0;entryY=0.5;entryDx=0;entryDy=0;" parent="1" source="7LnSrPK5jslSfy1wZtUa-131" target="7LnSrPK5jslSfy1wZtUa-139" edge="1">
          <mxGeometry relative="1" as="geometry" />
        </mxCell>
        <mxCell id="7LnSrPK5jslSfy1wZtUa-131" value="&lt;font style=&quot;font-size: 24px;&quot;&gt;Soft MAX&lt;/font&gt;" style="rounded=0;whiteSpace=wrap;html=1;" parent="1" vertex="1">
          <mxGeometry x="1965" y="445" width="210" height="140" as="geometry" />
        </mxCell>
        <mxCell id="7LnSrPK5jslSfy1wZtUa-132" value="" style="shape=table;startSize=0;container=1;collapsible=0;childLayout=tableLayout;" parent="1" vertex="1">
          <mxGeometry x="1700" y="445" width="180" height="140" as="geometry" />
        </mxCell>
        <mxCell id="7LnSrPK5jslSfy1wZtUa-133" value="" style="shape=tableRow;horizontal=0;startSize=0;swimlaneHead=0;swimlaneBody=0;strokeColor=inherit;top=0;left=0;bottom=0;right=0;collapsible=0;dropTarget=0;fillColor=none;points=[[0,0.5],[1,0.5]];portConstraint=eastwest;" parent="7LnSrPK5jslSfy1wZtUa-132" vertex="1">
          <mxGeometry width="180" height="140" as="geometry" />
        </mxCell>
        <mxCell id="7LnSrPK5jslSfy1wZtUa-134" value="&lt;font style=&quot;font-size: 24px;&quot;&gt;DFF&lt;/font&gt;" style="shape=partialRectangle;html=1;whiteSpace=wrap;connectable=0;strokeColor=inherit;overflow=hidden;fillColor=none;top=0;left=0;bottom=0;right=0;pointerEvents=1;" parent="7LnSrPK5jslSfy1wZtUa-133" vertex="1">
          <mxGeometry width="60" height="140" as="geometry">
            <mxRectangle width="60" height="140" as="alternateBounds" />
          </mxGeometry>
        </mxCell>
        <mxCell id="7LnSrPK5jslSfy1wZtUa-135" value="&lt;span style=&quot;font-size: 24px;&quot;&gt;DFF&lt;/span&gt;" style="shape=partialRectangle;html=1;whiteSpace=wrap;connectable=0;strokeColor=inherit;overflow=hidden;fillColor=none;top=0;left=0;bottom=0;right=0;pointerEvents=1;" parent="7LnSrPK5jslSfy1wZtUa-133" vertex="1">
          <mxGeometry x="60" width="60" height="140" as="geometry">
            <mxRectangle width="60" height="140" as="alternateBounds" />
          </mxGeometry>
        </mxCell>
        <mxCell id="7LnSrPK5jslSfy1wZtUa-136" value="&lt;span style=&quot;font-size: 24px;&quot;&gt;DFF&lt;/span&gt;" style="shape=partialRectangle;html=1;whiteSpace=wrap;connectable=0;strokeColor=inherit;overflow=hidden;fillColor=none;top=0;left=0;bottom=0;right=0;pointerEvents=1;" parent="7LnSrPK5jslSfy1wZtUa-133" vertex="1">
          <mxGeometry x="120" width="60" height="140" as="geometry">
            <mxRectangle width="60" height="140" as="alternateBounds" />
          </mxGeometry>
        </mxCell>
        <mxCell id="7LnSrPK5jslSfy1wZtUa-137" style="edgeStyle=orthogonalEdgeStyle;rounded=0;orthogonalLoop=1;jettySize=auto;html=1;exitX=1;exitY=0.5;exitDx=0;exitDy=0;entryX=0;entryY=0.5;entryDx=0;entryDy=0;" parent="1" source="7LnSrPK5jslSfy1wZtUa-133" target="7LnSrPK5jslSfy1wZtUa-131" edge="1">
          <mxGeometry relative="1" as="geometry" />
        </mxCell>
        <mxCell id="7LnSrPK5jslSfy1wZtUa-138" value="" style="shape=table;startSize=0;container=1;collapsible=0;childLayout=tableLayout;" parent="1" vertex="1">
          <mxGeometry x="2240" y="445" width="180" height="140" as="geometry" />
        </mxCell>
        <mxCell id="7LnSrPK5jslSfy1wZtUa-139" value="" style="shape=tableRow;horizontal=0;startSize=0;swimlaneHead=0;swimlaneBody=0;strokeColor=inherit;top=0;left=0;bottom=0;right=0;collapsible=0;dropTarget=0;fillColor=none;points=[[0,0.5],[1,0.5]];portConstraint=eastwest;" parent="7LnSrPK5jslSfy1wZtUa-138" vertex="1">
          <mxGeometry width="180" height="140" as="geometry" />
        </mxCell>
        <mxCell id="7LnSrPK5jslSfy1wZtUa-140" value="&lt;font style=&quot;font-size: 24px;&quot;&gt;DFF&lt;/font&gt;" style="shape=partialRectangle;html=1;whiteSpace=wrap;connectable=0;strokeColor=inherit;overflow=hidden;fillColor=none;top=0;left=0;bottom=0;right=0;pointerEvents=1;" parent="7LnSrPK5jslSfy1wZtUa-139" vertex="1">
          <mxGeometry width="60" height="140" as="geometry">
            <mxRectangle width="60" height="140" as="alternateBounds" />
          </mxGeometry>
        </mxCell>
        <mxCell id="7LnSrPK5jslSfy1wZtUa-141" value="&lt;span style=&quot;font-size: 24px;&quot;&gt;DFF&lt;/span&gt;" style="shape=partialRectangle;html=1;whiteSpace=wrap;connectable=0;strokeColor=inherit;overflow=hidden;fillColor=none;top=0;left=0;bottom=0;right=0;pointerEvents=1;" parent="7LnSrPK5jslSfy1wZtUa-139" vertex="1">
          <mxGeometry x="60" width="60" height="140" as="geometry">
            <mxRectangle width="60" height="140" as="alternateBounds" />
          </mxGeometry>
        </mxCell>
        <mxCell id="7LnSrPK5jslSfy1wZtUa-142" value="&lt;span style=&quot;font-size: 24px;&quot;&gt;DFF&lt;/span&gt;" style="shape=partialRectangle;html=1;whiteSpace=wrap;connectable=0;strokeColor=inherit;overflow=hidden;fillColor=none;top=0;left=0;bottom=0;right=0;pointerEvents=1;" parent="7LnSrPK5jslSfy1wZtUa-139" vertex="1">
          <mxGeometry x="120" width="60" height="140" as="geometry">
            <mxRectangle width="60" height="140" as="alternateBounds" />
          </mxGeometry>
        </mxCell>
        <mxCell id="7LnSrPK5jslSfy1wZtUa-143" style="edgeStyle=orthogonalEdgeStyle;rounded=0;orthogonalLoop=1;jettySize=auto;html=1;exitX=0;exitY=0.5;exitDx=0;exitDy=0;startArrow=classic;startFill=1;endArrow=none;endFill=0;entryX=0.887;entryY=0.727;entryDx=0;entryDy=0;entryPerimeter=0;" parent="1" source="7LnSrPK5jslSfy1wZtUa-133" target="7LnSrPK5jslSfy1wZtUa-145" edge="1">
          <mxGeometry relative="1" as="geometry">
            <mxPoint x="1640" y="515" as="targetPoint" />
            <Array as="points">
              <mxPoint x="1640" y="515" />
              <mxPoint x="1640" y="460" />
              <mxPoint x="1556" y="460" />
            </Array>
          </mxGeometry>
        </mxCell>
        <mxCell id="7LnSrPK5jslSfy1wZtUa-145" value="&lt;font style=&quot;font-size: 24px;&quot;&gt;Demux&lt;/font&gt;" style="shadow=0;dashed=0;align=center;html=1;strokeWidth=1;shape=mxgraph.electrical.abstract.mux2;operation=demux;whiteSpace=wrap;" parent="1" vertex="1">
          <mxGeometry x="1450" y="65" width="120" height="540" as="geometry" />
        </mxCell>
        <mxCell id="7LnSrPK5jslSfy1wZtUa-146" value="&lt;font style=&quot;font-size: 24px;&quot;&gt;Mux&lt;/font&gt;" style="shadow=0;dashed=0;align=center;html=1;strokeWidth=1;shape=mxgraph.electrical.abstract.mux2;whiteSpace=wrap;" parent="1" vertex="1">
          <mxGeometry x="2560" y="65" width="120" height="540" as="geometry" />
        </mxCell>
        <mxCell id="7LnSrPK5jslSfy1wZtUa-147" style="edgeStyle=orthogonalEdgeStyle;rounded=0;orthogonalLoop=1;jettySize=auto;html=1;exitX=1;exitY=0.5;exitDx=0;exitDy=0;entryX=0;entryY=0.24259259259259258;entryDx=0;entryDy=3;entryPerimeter=0;" parent="1" source="7LnSrPK5jslSfy1wZtUa-79" target="7LnSrPK5jslSfy1wZtUa-146" edge="1">
          <mxGeometry relative="1" as="geometry" />
        </mxCell>
        <mxCell id="7LnSrPK5jslSfy1wZtUa-148" style="edgeStyle=orthogonalEdgeStyle;rounded=0;orthogonalLoop=1;jettySize=auto;html=1;exitX=1;exitY=0.5;exitDx=0;exitDy=0;entryX=0;entryY=0.7277777777777777;entryDx=0;entryDy=3;entryPerimeter=0;" parent="1" source="7LnSrPK5jslSfy1wZtUa-139" target="7LnSrPK5jslSfy1wZtUa-146" edge="1">
          <mxGeometry relative="1" as="geometry" />
        </mxCell>
        <mxCell id="7LnSrPK5jslSfy1wZtUa-149" value="" style="html=1;shadow=0;dashed=0;align=center;verticalAlign=middle;shape=mxgraph.arrows2.bendArrow;dy=15;dx=38;notch=0;arrowHead=55;rounded=0;strokeWidth=1;direction=west;" parent="1" vertex="1">
          <mxGeometry x="2130" y="710" width="670" height="185" as="geometry" />
        </mxCell>
        <mxCell id="7LnSrPK5jslSfy1wZtUa-151" value="" style="html=1;shadow=0;dashed=0;align=center;verticalAlign=middle;shape=mxgraph.arrows2.bendArrow;dy=15;dx=38;notch=0;arrowHead=55;rounded=0;strokeWidth=1;direction=south;" parent="1" vertex="1">
          <mxGeometry x="2680" y="315" width="130" height="365" as="geometry" />
        </mxCell>
        <mxCell id="7LnSrPK5jslSfy1wZtUa-152" value="" style="shape=flexArrow;endArrow=classic;html=1;rounded=0;endWidth=82.5;endSize=28.475;width=45;" parent="1" edge="1">
          <mxGeometry width="50" height="50" relative="1" as="geometry">
            <mxPoint x="-15" y="863.5699999999999" as="sourcePoint" />
            <mxPoint x="-180" y="863.5699999999999" as="targetPoint" />
          </mxGeometry>
        </mxCell>
      </root>
    </mxGraphModel>
  </diagram>
</mxfile>
